<?xml version="1.0" encoding="UTF-8" standalone="no"?>
<!-- Created with Inkscape (http://www.inkscape.org/) -->

<svg
   xmlns:dc="http://purl.org/dc/elements/1.1/"
   xmlns:cc="http://creativecommons.org/ns#"
   xmlns:rdf="http://www.w3.org/1999/02/22-rdf-syntax-ns#"
   xmlns:svg="http://www.w3.org/2000/svg"
   xmlns="http://www.w3.org/2000/svg"
   xmlns:sodipodi="http://sodipodi.sourceforge.net/DTD/sodipodi-0.dtd"
   xmlns:inkscape="http://www.inkscape.org/namespaces/inkscape"
   width="744.09448819"
   height="1052.3622047"
   id="svg2"
   version="1.1"
   inkscape:version="0.48.3.1 r9886"
   sodipodi:docname="idée (copy).svg">
  <defs
     id="defs4" />
  <sodipodi:namedview
     id="base"
     pagecolor="#ffffff"
     bordercolor="#666666"
     borderopacity="1.0"
     inkscape:pageopacity="0.0"
     inkscape:pageshadow="2"
     inkscape:zoom="0.7"
     inkscape:cx="765.56287"
     inkscape:cy="556.45324"
     inkscape:document-units="px"
     inkscape:current-layer="layer1"
     showgrid="false"
     inkscape:window-width="1215"
     inkscape:window-height="776"
     inkscape:window-x="65"
     inkscape:window-y="24"
     inkscape:window-maximized="1" />
  <metadata
     id="metadata7">
    <rdf:RDF>
      <cc:Work
         rdf:about="">
        <dc:format>image/svg+xml</dc:format>
        <dc:type
           rdf:resource="http://purl.org/dc/dcmitype/StillImage" />
        <dc:title />
      </cc:Work>
    </rdf:RDF>
  </metadata>
  <g
     inkscape:label="Layer 1"
     inkscape:groupmode="layer"
     id="layer1">
    <text
       xml:space="preserve"
       style="font-size:40px;font-style:normal;font-weight:normal;line-height:125%;letter-spacing:0px;word-spacing:0px;fill:#000000;fill-opacity:1;stroke:none;font-family:Sans"
       x="91.428574"
       y="106.6479"
       id="text2985"
       sodipodi:linespacing="125%"><tspan
         sodipodi:role="line"
         id="tspan2987"
         x="91.428574"
         y="106.6479">Aline GRELLIER</tspan></text>
    <text
       xml:space="preserve"
       style="font-size:25.60995865px;font-style:normal;font-weight:normal;line-height:125%;letter-spacing:0px;word-spacing:0px;fill:#000000;fill-opacity:1;stroke:none;font-family:Sans"
       x="54.505318"
       y="190.20689"
       id="text3007"
       sodipodi:linespacing="125%"
       transform="scale(0.94575452,1.0573568)"><tspan
         sodipodi:role="line"
         id="tspan3009"
         x="54.505318"
         y="190.20689">Education</tspan></text>
    <path
       style="fill:none;stroke:#000000;stroke-width:1px;stroke-linecap:butt;stroke-linejoin:miter;stroke-opacity:1"
       d="m 65.714286,239.50504 c 1.904762,0 5.714285,-1.90476 5.714285,0 0,1.90476 -7.619047,0 -5.714285,0 13.333333,0 26.666666,0 40.000004,0 3.80952,0 7.61904,0 11.42857,0 1.90476,0 3.80952,0 5.71428,0 0.95238,0 1.91059,-0.10517 2.85715,0 3.34658,0.37184 6.64953,1.09353 10,1.42857 1.42148,0.14215 2.85714,0 4.28571,0 3.80952,0.47619 7.61288,1.00461 11.42857,1.42857 0.47328,0.0526 0.95238,0 1.42857,0 2.38096,0 4.78029,-0.29532 7.14286,0 1.49422,0.18678 2.80036,1.18101 4.28571,1.42857 1.40914,0.23486 2.85715,0 4.28572,0 6.19047,0 12.38095,0 18.57143,0 1.42857,0 2.87658,-0.23485 4.28571,0 1.48536,0.24756 2.7915,1.2418 4.28572,1.42858 2.36256,0.29532 4.7619,0 7.14285,0 3.80953,0 7.61905,0 11.42857,0 11.90477,0 23.80953,0 35.71429,0 16.19048,0 32.38095,0 48.57143,0 5.71428,0 11.42857,0 17.14286,0 2.38095,0 4.7943,-0.39143 7.14285,0 0.66427,0.11071 0.76822,1.2965 1.42857,1.42857 1.3213,0.26426 16.29941,0 17.14286,0 0.47619,0 0.97682,-0.15059 1.42857,0 1.01016,0.33671 1.80684,1.25352 2.85715,1.42857 2.81826,0.46971 5.71428,0 8.57142,0 4.76191,0 9.52381,0 14.28572,0 3.80952,0 7.61905,0 11.42857,0 1.42857,0 2.85714,0 4.28571,0 0.47619,0 0.97682,0.15058 1.42858,0 1.01015,-0.33672 1.80683,-1.25352 2.85714,-1.42857 1.87884,-0.31314 3.80952,0 5.71428,0 1.90477,-0.47619 3.78903,-1.04352 5.71429,-1.42857 1.45,-0.29 4.4892,0.40836 5.71429,0 1.01015,-0.33672 1.82414,-1.17032 2.85714,-1.42858 1.8783,-0.46957 5.36864,0.59141 7.14286,0 0.63887,-0.21295 0.78969,-1.21561 1.42857,-1.42857 0.92739,-0.30913 8.70232,0 10,0 0.95238,0 1.95363,0.30117 2.85714,0 0.63888,-0.21296 0.78969,-1.21561 1.42857,-1.42857 1.35526,-0.45175 2.85714,0 4.28572,0 3.33333,0 6.66666,0 10,0 3.33333,0 6.66666,0 10,0 0.95238,0 1.95363,0.30117 2.85714,0 0.63887,-0.21296 0.78969,-1.21561 1.42857,-1.42857 1.35526,-0.45175 2.85714,0 4.28571,0 2.38096,0 4.76191,0 7.14286,0 7.61905,0 15.2381,0 22.85714,0"
       id="path3013"
       inkscape:connector-curvature="0" />
    <path
       style="fill:none;stroke:#000000;stroke-width:0.89645678px;stroke-linecap:butt;stroke-linejoin:miter;stroke-opacity:1"
       d="m 67.142857,273.79075 c 1.530733,0.47619 3.044996,1.04352 4.592199,1.42858 0.750503,0.18677 1.530733,0 2.296099,0 1.530733,0 3.061466,0 4.592199,0 4.974882,0 9.949763,0 14.924642,0 15.307334,0 30.614664,0 45.921994,0 47.8354,0 95.6708,0 143.50621,0 14.15928,0 28.31856,0 42.47783,0 6.50562,0 13.02564,-0.53849 19.51685,0 1.20747,0.10016 2.23818,1.30351 3.44414,1.42857 15.74469,1.63265 5.46691,-0.54422 13.7766,0 6.1264,0.40123 12.24024,1.08193 18.3688,1.42857 5.98687,0.33862 12.47263,-0.56438 18.36879,0 1.20659,0.11549 2.23818,1.30352 3.44415,1.42857 4.19497,0.435 8.41903,0 12.62854,0 12.24587,0 24.49173,0 36.73759,0"
       id="path3015"
       inkscape:connector-curvature="0" />
    <path
       style="fill:none;stroke:#000000;stroke-width:0.96586949px;stroke-linecap:butt;stroke-linejoin:miter;stroke-opacity:1"
       d="m 80,302.36218 c 0.383787,-1.00578 7.763617,0.55934 9.329037,0 0.59601,-0.21296 0.73671,-1.21561 1.33272,-1.42857 0.842884,-0.30117 1.776964,0 2.665444,0 1.77696,0 3.55392,0 5.33088,0 5.775119,0 11.550239,0 17.325349,0 1.77696,0 3.55393,0 5.33089,0 2.66543,0 5.35146,-0.35438 7.99632,0 0.98568,0.13207 1.77696,0.95238 2.66543,1.42857 3.55392,0.47619 7.09986,1.02667 10.66176,1.42857 4.88664,0.47619 9.77328,0.95238 14.65992,1.42857 1.33272,0 2.66937,-0.10956 3.99816,0 34.87628,2.87575 -5.53112,-0.0195 23.98896,2.85715 1.32724,0.12933 2.67572,-0.1772 3.99815,0 5.79794,0.77687 11.53587,2.01088 17.32536,2.85714 13.25376,1.93732 26.66571,2.98812 39.98159,4.28571 2.5951,0.25289 24.80043,2.36916 27.98712,2.85715 1.81323,0.27766 3.50205,1.31966 5.33088,1.42857 6.20978,0.3698 12.44458,-0.28958 18.65807,0 24.76017,1.15395 2.12928,0.88852 18.65808,2.85714 5.75675,0.68564 11.54317,1.06398 17.32536,1.42857 1.77389,0.11185 3.55392,0 5.33087,0 5.33089,0.47619 10.6537,1.07089 15.99264,1.42857 1.7735,0.11882 3.55786,-0.1267 5.33088,0 4.89592,0.34987 9.76399,1.07871 14.65992,1.42858 1.77302,0.1267 3.55785,-0.12671 5.33088,0 4.89592,0.34987 9.76399,1.0787 14.65991,1.42857 1.77302,0.1267 3.55393,0 5.33089,0 4.44239,0 8.89787,-0.36522 13.32719,0 1.40067,0.11549 2.61247,1.18101 3.99816,1.42857 1.31459,0.23485 2.66544,0 3.99816,0 4.44239,0 8.8848,0 13.32719,0 5.33089,0 10.66177,0 15.99264,0"
       id="path3017"
       inkscape:connector-curvature="0" />
    <path
       style="fill:none;stroke:#000000;stroke-width:1px;stroke-linecap:butt;stroke-linejoin:miter;stroke-opacity:1"
       d="m 75.714283,349.50504 c 1.90476,-0.47619 3.78903,-1.04352 5.71429,-1.42857 1.52742,-0.30549 5.3818,0 7.14286,0 5.23809,0 10.47619,0 15.714277,0 17.61905,0 35.2381,0 52.85714,0 54.28572,0 108.57143,0 162.85715,0 19.35832,0 0.0265,-1.0648 10,1.42857 0.92394,0.23099 1.90476,0 2.85714,0 1.42857,0 2.85714,0 4.28571,0 3.80953,0 7.61905,0 11.42858,0 9.52381,0 19.04761,0 28.57142,0 0.74703,0 5.33866,-0.18782 5.71429,0 0.60234,0.30117 0.82623,1.1274 1.42857,1.42857 0.85184,0.42592 2.00531,-0.42592 2.85714,0 0.60234,0.30117 0.7897,1.21561 1.42858,1.42857 0.9035,0.30117 1.90476,0 2.85714,0 0.47619,0 1.00265,-0.21296 1.42857,0 0.60234,0.30117 0.82623,1.12741 1.42857,1.42857 0.85184,0.42592 2.18371,-0.67343 2.85714,0 0.33672,0.33672 -0.33671,1.09186 0,1.42858 0.33672,0.33671 0.95239,0 1.42858,0 0.47619,0 0.95238,0 1.42857,0 0.52462,0 5.6568,0.0575 5.71428,0 0.33672,-0.33672 0,-0.95239 0,-1.42858"
       id="path3019"
       inkscape:connector-curvature="0" />
    <path
       sodipodi:type="arc"
       style="opacity:0.58024693;fill:#ff00ff;fill-opacity:1;stroke:#000000;stroke-opacity:0.43147212"
       id="path3021"
       sodipodi:cx="660"
       sodipodi:cy="260.21933"
       sodipodi:rx="127.14286"
       sodipodi:ry="123.57143"
       d="m 787.14286,260.21933 a 127.14286,123.57143 0 1 1 -254.28572,0 127.14286,123.57143 0 1 1 254.28572,0 z"
       transform="matrix(0.6529579,0,0,0.70073123,207.61922,90.732657)" />
    <path
       style="fill:none;stroke:#000000;stroke-width:1px;stroke-linecap:butt;stroke-linejoin:miter;stroke-opacity:1"
       d="m 605.71429,200.93361 c 4.89201,-1.49231 4.41565,4.35069 7.14285,5.71429 0.42592,0.21296 1.00266,-0.21296 1.42857,0 0.60234,0.30117 0.82624,1.1274 1.42858,1.42857 0.42591,0.21296 1.00265,-0.21296 1.42857,0 0.60234,0.30117 0.82623,1.1274 1.42857,1.42857 0.85183,0.42592 2.00531,-0.42592 2.85714,0 0.60234,0.30117 0.82623,1.1274 1.42857,1.42857 0.56642,0.28321 3.99366,-0.29205 4.28572,0 0.33671,0.33672 -0.42592,1.21561 0,1.42857 0.85183,0.42592 1.95363,-0.30117 2.85714,0 0.63888,0.21296 0.82623,1.12741 1.42857,1.42857 0.37563,0.18782 4.96726,0 5.71429,0 5.23809,0 10.47619,0 15.71428,0 1.01258,0 8.20207,0.18468 8.57143,0 0.60234,-0.30116 0.82623,-1.1274 1.42857,-1.42857 0.85184,-0.42591 2.00531,0.42592 2.85715,0 0.60233,-0.30117 0.82623,-1.1274 1.42857,-1.42857 0.85183,-0.42592 2.1837,0.67344 2.85714,0 0.33672,-0.33672 -0.33672,-1.09185 0,-1.42857 0.33672,-0.33672 1.00265,0.21296 1.42857,0 0.60234,-0.30117 0.82623,-1.1274 1.42857,-1.42857 0.42592,-0.21296 1.09186,0.33672 1.42857,0 0.33672,-0.33672 -0.33671,-1.09186 0,-1.42857 0.33672,-0.33672 1.09186,0.33671 1.42858,0 0.33671,-0.33672 -0.33672,-1.09186 0,-1.42857 0.33671,-0.33672 1.09185,0.33671 1.42857,0 0.33671,-0.33672 -0.33672,-1.09186 0,-1.42858 0.33671,-0.33671 1.09185,0.33672 1.42857,0 0.33672,-0.33671 -0.33672,-1.09185 0,-1.42857 1.90476,-1.90476 1.42857,2.38096 1.42857,-1.42857"
       id="path3023"
       inkscape:connector-curvature="0" />
    <path
       style="fill:none;stroke:#000000;stroke-width:1px;stroke-linecap:butt;stroke-linejoin:miter;stroke-opacity:1"
       d="m 560,246.6479 c 1.42857,1.90476 6.19048,4.28571 4.28571,5.71428 -1.90476,1.42857 -5.9693,-7.39787 -4.28571,-5.71428 2.15604,2.15604 3.76229,4.80047 5.71429,7.14285 0.43112,0.51735 1.1274,0.82624 1.42857,1.42858 0.21296,0.42591 -0.33672,1.09185 0,1.42857 0.33671,0.33671 1.09185,-0.33672 1.42857,0 0.47574,0.47574 -0.47575,2.38139 0,2.85714 0.33672,0.33672 1.09185,-0.33672 1.42857,0 0.33672,0.33672 -0.21296,1.00265 0,1.42857 4.73797,4.73798 -0.67344,-1.34687 1.42857,2.85714 0.30117,0.60234 1.1274,0.82624 1.42857,1.42858 0.37966,0.7593 -0.37965,2.09783 0,2.85714 0.30117,0.60234 1.1274,0.82623 1.42857,1.42857 0.21296,0.42592 -0.33671,1.09185 0,1.42857 0.33672,0.33672 1.09186,-0.33672 1.42858,0 0.67343,0.67344 -0.67344,2.18371 0,2.85714 1.90476,1.90477 1.42857,-2.38095 1.42857,1.42858 0,4.28571 0,8.57142 0,12.85714 0,0.47619 0,0.95238 0,1.42857 0,0.47619 -0.33672,1.09185 0,1.42857 0.47621,0.47621 2.38093,-0.47621 2.85714,0 0.33672,0.33672 -0.33672,1.09186 0,1.42857 0.67343,0.67344 2.18371,-0.67343 2.85714,0 0.33672,0.33672 -0.33671,1.09186 0,1.42857 0.67344,0.67344 2.18371,-0.67343 2.85715,0 0.33671,0.33672 -0.33672,1.09186 0,1.42858 0.33671,0.33671 1.09185,-0.33672 1.42857,0 0.47456,0.47456 -0.47457,2.38257 0,2.85714 0.33671,0.33672 1.09185,-0.33672 1.42857,0 0.0459,0.0459 0,3.93925 0,4.28571 0,3.80953 -0.47619,-0.47619 1.42857,1.42857 0.29205,0.29206 -0.28321,3.7193 0,4.28572 0.30117,0.60234 1.1274,0.82623 1.42857,1.42857 0.42592,0.85184 -0.42592,2.00531 0,2.85714 0.30117,0.60234 1.1274,0.82624 1.42857,1.42857 0.42592,0.85184 -0.67343,2.18371 0,2.85715 0.33672,0.33671 1.09186,-0.33672 1.42857,0 0.47575,0.47574 -0.47574,2.38139 0,2.85714 0.33672,0.33672 1.09186,-0.33672 1.42858,0 0.67343,0.67344 -0.67344,2.18371 0,2.85714 0.33671,0.33672 1.09185,-0.33671 1.42857,0 0.71428,0.71429 -0.71429,3.57143 0,4.28572 0.33671,0.33671 1.09185,-0.33672 1.42857,0 0.67343,0.67343 -0.67344,2.18371 0,2.85714 0.33672,0.33672 1.09185,-0.33672 1.42857,0 0.47503,0.47503 -0.47503,2.38211 0,2.85714 0.33672,0.33672 1.09185,-0.33671 1.42857,0 0.33672,0.33672 -0.33672,1.09186 0,1.42857 0.33672,0.33672 1.09186,-0.33671 1.42857,0 0.33672,0.33672 -0.21296,1.00266 0,1.42858 0.30117,0.60233 1.1274,0.82623 1.42857,1.42857 0.21296,0.42591 -0.33671,1.09185 0,1.42857 0.33672,0.33672 1.09186,-0.33672 1.42858,0 0.33671,0.33672 -0.33672,1.09185 0,1.42857 0.33671,0.33672 1.09185,-0.33672 1.42857,0 0.33671,0.33672 -0.21296,1.00265 0,1.42857 0.30117,0.60234 1.1274,0.82623 1.42857,1.42857 0.21296,0.42592 -0.33672,1.09186 0,1.42857 0.33672,0.33672 1.09185,-0.33671 1.42857,0 0.67343,0.67344 -0.67344,2.18371 0,2.85715 0.33672,0.33671 1.09185,-0.33672 1.42857,0 0.33672,0.33671 -0.33672,1.09185 0,1.42857 0.33672,0.33672 1.09186,0.33672 1.42857,0 0.0575,-0.0575 0,-5.18966 0,-5.71429 0,-3.80952 0,-7.61904 0,-11.42857 0,-0.74703 0.18782,-5.33865 0,-5.71428 -0.30117,-0.60234 -1.1274,-0.82624 -1.42857,-1.42858 -0.18781,-0.37563 0,-4.96725 0,-5.71428 0,-0.74703 -0.18781,-5.33866 0,-5.71429 0.30117,-0.60234 1.1274,-0.82623 1.42857,-1.42857 0.42592,-0.85183 -0.67343,-2.18371 0,-2.85714 0.33672,-0.33672 1.09186,0.33672 1.42857,0 0.33672,-0.33672 -0.33671,-1.09186 0,-1.42857 0.33672,-0.33672 1.09186,0.33671 1.42858,0 0.67343,-0.67344 -0.67344,-2.18371 0,-2.85715 0.47621,-0.47621 2.38093,0.47622 2.85714,0 0.33672,-0.33671 -0.33672,-1.09185 0,-1.42857 0.67343,-0.67343 2.18371,0.67344 2.85714,0 0.33672,-0.33671 -0.33672,-1.09185 0,-1.42857 0.33672,-0.33672 1.09186,0.33672 1.42857,0 0.67344,-0.67343 -0.67343,-2.18371 0,-2.85714 0.33672,-0.33672 1.09186,0.33672 1.42857,0 0.33672,-0.33672 -0.21295,-1.00265 0,-1.42857 4.73798,-4.73798 -0.67343,1.34687 1.42858,-2.85715 0.30116,-0.60233 1.1274,-0.82623 1.42857,-1.42857 0.21296,-0.42591 -0.33672,-1.09185 0,-1.42857 0.33671,-0.33672 1.09185,0.33672 1.42857,0 0.0575,-0.0575 0,-5.18966 0,-5.71428 0,-0.47619 0.33672,-1.09186 0,-1.42858 -0.67344,-0.67343 -2.18371,0.67344 -2.85714,0 -0.33672,-0.33671 0.33671,-1.09185 0,-1.42857 -0.67344,-0.67343 -2.18371,0.67344 -2.85715,0 -0.33671,-0.33671 0.33672,-1.09185 0,-1.42857 -0.33671,-0.33672 -0.95238,0 -1.42857,0 -3.33333,0 -6.66667,0 -10,0 -0.74703,0 -5.33865,0.18782 -5.71428,0 -0.60234,-0.30117 -0.82624,-1.1274 -1.42858,-1.42857 -0.42591,-0.21296 -1.09185,0.33672 -1.42857,0 -0.33671,-0.33672 0.33672,-1.09185 0,-1.42857 -0.47621,-0.47621 -2.38093,0.47621 -2.85714,0 -0.33672,-0.33672 0.21296,-1.00265 0,-1.42857 -0.30117,-0.60234 -1.1274,-0.82624 -1.42857,-1.42857 -0.21296,-0.42592 0.33672,-1.09186 0,-1.42858 -0.33672,-0.33671 -0.95238,0 -1.42857,0 0,-0.47619 0.33671,-1.09185 0,-1.42857 -0.33672,-0.33671 -1.09186,0.33672 -1.42857,0 -0.67344,-0.67343 0.67343,-2.1837 0,-2.85714 -0.33672,-0.33672 -1.09186,0.33672 -1.42858,0 -0.33671,-0.33672 0.33672,-1.09185 0,-1.42857 -0.33671,-0.33672 -1.09185,0.33672 -1.42857,0 -0.33671,-0.33672 0.33672,-1.09186 0,-1.42857 -0.33671,-0.33672 -1.09185,0.33671 -1.42857,0 -0.33672,-0.33672 0.21296,-1.00266 0,-1.42857 -0.30117,-0.60234 -1.1274,-0.82624 -1.42857,-1.42858 -0.25831,-0.51661 0,-6.14922 0,-7.14285 0,-0.47619 -0.33672,-1.09186 0,-1.42857 0.33672,-0.33672 0.95238,0 1.42857,0 2.85714,0 5.71429,0 8.57143,0 0.47619,0 0.95238,0 1.42857,0 0.47619,0 1.00265,-0.21296 1.42857,0 0.60234,0.30117 0.82624,1.1274 1.42857,1.42857 0.42592,0.21296 1.09186,-0.33672 1.42858,0 0.33671,0.33671 -0.33672,1.09185 0,1.42857 0.33671,0.33672 1.09185,-0.33672 1.42857,0 0.33671,0.33672 -0.33672,1.09185 0,1.42857 0.33671,0.33672 1.09185,0.33672 1.42857,0 0.33672,-0.33672 0,-0.95238 0,-1.42857 0,-0.47619 0.33672,-1.09186 0,-1.42857 -0.33672,-0.33672 -1.00266,0.21296 -1.42857,0 -0.60234,-0.30117 -0.82624,-1.1274 -1.42857,-1.42857 -0.42592,-0.21296 -1.09186,0.33671 -1.42858,0 -0.33671,-0.33672 0.33672,-1.09186 0,-1.42858 -0.33671,-0.33671 -1.09185,0.33672 -1.42857,0 -0.33671,-0.33671 0.33672,-1.09185 0,-1.42857 -0.33671,-0.33671 -1.09185,0.33672 -1.42857,0 -0.67343,-0.67343 0.42592,-2.0053 0,-2.85714 -0.30117,-0.60234 -1.1274,-0.82623 -1.42857,-1.42857 -0.21296,-0.42592 0,-0.95238 0,-1.42857 -0.47619,-0.47619 -1.1274,-0.82624 -1.42857,-1.42857 -0.21296,-0.42592 0.33672,-1.09186 0,-1.42858 -0.33672,-0.33671 -1.09186,0.33672 -1.42857,0 -0.71429,-0.71428 0.71428,-3.57142 0,-4.28571 -0.33672,-0.33672 -1.09186,0.33672 -1.42857,0 -0.0575,-0.0575 0,-5.18966 0,-5.71429 0,-0.47619 0,-0.95238 0,-1.42857 0,-0.47619 -0.21296,-1.00265 0,-1.42857 0.30116,-0.60234 1.1274,-0.82623 1.42857,-1.42857 0.21738,-0.43476 0,-3.64235 0,-4.28571 0,-3.80953 0,-7.61905 0,-11.42858 0,-0.34646 -0.046,-4.23977 0,-4.28571 0.33671,-0.33672 1.09185,0.33672 1.42857,0 0.33672,-0.33672 -0.33672,-1.09185 0,-1.42857 0.33672,-0.33672 1.09185,0.33672 1.42857,0 0.33672,-0.33672 -0.21296,-1.00265 0,-1.42857 0.30117,-0.60234 1.1274,-0.82624 1.42857,-1.42857 0.95238,-1.90477 -1.42857,-1.42858 1.42857,-1.42858"
       id="path3025"
       inkscape:connector-curvature="0" />
    <path
       style="fill:none;stroke:#000000;stroke-width:1px;stroke-linecap:butt;stroke-linejoin:miter;stroke-opacity:1"
       d="m 640,215.21933 c 0.47619,1.90476 3.33333,5.23809 1.42857,5.71428 -1.90476,0.47619 -2.81689,-7.10261 -1.42857,-5.71428 3.8838,3.8838 2.85714,13.30479 2.85714,18.57142 0,0.34647 0.046,4.23978 0,4.28572 -0.33671,0.33672 -0.95238,0 -1.42857,0 -0.47619,0 -0.95238,0 -1.42857,0 -3.80952,0 0.47619,-0.47619 -1.42857,1.42857 -0.33672,0.33672 -1.00266,-0.21296 -1.42857,0 -0.60234,0.30117 -0.82624,1.1274 -1.42857,1.42857 -0.42592,0.21296 -1.09186,-0.33672 -1.42858,0 -0.33671,0.33672 0.33672,1.09186 0,1.42857 -0.67343,0.67344 -2.1837,-0.67343 -2.85714,0 -0.33672,0.33672 -0.33672,1.09186 0,1.42857 0.33672,0.33672 0.95238,0 1.42857,0 0.47619,0 0.95238,0 1.42857,0 0.99363,0 6.62624,0.25831 7.14286,0 0.60234,-0.30116 0.82623,-1.1274 1.42857,-1.42857 0.51662,-0.25831 6.14923,0 7.14286,0 0.47619,0 1.09185,-0.33671 1.42857,0 0.67344,0.67344 -0.42592,2.00531 0,2.85715 0.30117,0.60233 1.1274,0.82623 1.42857,1.42857 0.21738,0.43476 0,3.64234 0,4.28571 0,3.33333 0,6.66667 0,10 0,1.42857 0,2.85714 0,4.28572 0,0.47619 0.47619,1.42857 0,1.42857 -0.47619,0 -0.33672,-1.09186 0,-1.42857 0.33672,-0.33672 1.09186,0.33671 1.42857,0 0.33672,-0.33672 -0.21295,-1.00266 0,-1.42858 0.85715,-1.71428 3.42858,-2.57142 4.28572,-4.28571 0.21296,-0.42592 -0.33672,-1.09185 0,-1.42857 0.33672,-0.33672 1.00265,0.21296 1.42857,0 0.60234,-0.30117 0.95238,-0.95238 1.42857,-1.42857 0.47619,-0.47619 0.95238,-0.95238 1.42857,-1.42857 0.47619,-0.47619 0.95238,-0.95239 1.42857,-1.42858 0.47619,-0.47619 0.82624,-1.1274 1.42858,-1.42857 0.42591,-0.21296 1.09185,0.33672 1.42857,0 0.33671,-0.33671 -0.33672,-1.09185 0,-1.42857 0.29205,-0.29205 3.71929,0.28321 4.28571,0 0.60234,-0.30117 0.82623,-1.1274 1.42857,-1.42857 0.51662,-0.25831 6.14923,0 7.14286,0 0.47619,0 1.09185,0.33672 1.42857,0 0.33672,-0.33672 -0.33672,-1.09185 0,-1.42857 0.33672,-0.33672 1.09185,0.33672 1.42857,0 0.33672,-0.33672 -0.33672,-1.09186 0,-1.42857 0.67344,-0.67344 2.18371,0.67343 2.85715,0 0.33671,-0.33672 -0.33672,-1.09186 0,-1.42857 0.67343,-0.67344 2.1837,0.67343 2.85714,0 0.33672,-0.33672 -0.33672,-1.09186 0,-1.42858 0.67343,-0.67343 2.00531,0.42592 2.85714,0 0.60234,-0.30116 0.82623,-1.1274 1.42857,-1.42857 0.43477,-0.21738 3.64235,0 4.28572,0 2.85714,0 5.71428,0 8.57143,0 0.47619,0 1.09185,-0.33671 1.42857,0 0.33671,0.33672 0,0.95238 0,1.42857 0,0.64337 0.21738,3.85096 0,4.28572 -0.30117,0.60234 -1.12741,0.82623 -1.42857,1.42857 -0.21296,0.42592 0.33671,1.09185 0,1.42857 -0.33672,0.33672 -1.09186,-0.33672 -1.42858,0 -0.33671,0.33672 0.33672,1.09186 0,1.42857 -0.33671,0.33672 -1.09185,-0.33671 -1.42857,0 -0.33672,0.33672 0.33672,1.09186 0,1.42857 -0.33672,0.33672 -1.09185,-0.33671 -1.42857,0 -0.33672,0.33672 0.33672,1.09186 0,1.42858 -0.67343,0.67343 -2.18371,-0.67344 -2.85714,0 -0.33672,0.33671 0.33672,1.09185 0,1.42857 -0.33672,0.33671 -1.00266,-0.21296 -1.42857,0 -0.60234,0.30117 -0.82624,1.1274 -1.42857,1.42857 -0.36936,0.18468 -7.55886,0 -8.57143,0 -2.85715,0 -5.71429,0 -8.57143,0 -0.47619,0 -1.09186,-0.33672 -1.42857,0 -0.33672,0.33672 0.33671,1.09185 0,1.42857 -0.33672,0.33672 -1.09186,-0.33672 -1.42857,0 -0.33672,0.33672 0.33671,1.09185 0,1.42857 -0.33672,0.33672 -1.09186,-0.33672 -1.42858,0 -0.33671,0.33672 0.33672,1.09186 0,1.42857 -0.33671,0.33672 -1.09185,-0.33671 -1.42857,0 -0.33672,0.33672 0.33672,1.09186 0,1.42857 -0.33672,0.33672 -1.09185,-0.33671 -1.42857,0 -0.33672,0.33672 0.33672,1.09186 0,1.42858 -0.33672,0.33671 -1.00265,-0.21296 -1.42857,0 -0.60234,0.30117 -0.95238,0.95238 -1.42857,1.42857 -0.47619,0.47619 -1.1274,0.82623 -1.42857,1.42857 -0.21296,0.42592 0.33671,1.09185 0,1.42857 -0.33672,0.33672 -1.09186,-0.33672 -1.42857,0 -0.33672,0.33672 0.33671,1.09185 0,1.42857 -0.33672,0.33672 -1.09186,-0.33672 -1.42858,0 -0.33671,0.33672 0.33672,1.09186 0,1.42857 -0.33671,0.33672 -1.09185,-0.33671 -1.42857,0 -0.33672,0.33672 0.33672,1.09186 0,1.42857 -0.33672,0.33672 -1.09185,-0.33671 -1.42857,0 -0.33672,0.33672 0.33672,1.09186 0,1.42858 -0.33672,0.33671 -1.09185,-0.33672 -1.42857,0 -0.33672,0.33671 0.33672,1.09185 0,1.42857 -0.33672,0.33671 -1.09185,-0.33672 -1.42857,0 -0.33672,0.33671 0,0.95238 0,1.42857 0,0.47619 0,0.95238 0,1.42857 0,0.64337 -0.21738,3.85095 0,4.28571 0.30117,0.60234 1.1274,0.82624 1.42857,1.42858 0.21296,0.42591 -0.33672,1.09185 0,1.42857 0.33672,0.33671 1.09185,-0.33672 1.42857,0 0.33672,0.33671 -0.21296,1.00265 0,1.42857 0.60234,1.20468 2.25481,1.65246 2.85714,2.85714 0.21296,0.42592 -0.33671,1.09186 0,1.42857 0.33672,0.33672 1.09186,-0.33671 1.42858,0 0.33671,0.33672 -0.33672,1.09186 0,1.42857 0.33671,0.33672 1.09185,-0.33671 1.42857,0 0.33671,0.33672 -0.33672,1.09186 0,1.42858 0.33671,0.33671 1.09185,-0.33672 1.42857,0 0.33672,0.33671 -0.33672,1.09185 0,1.42857 0.33672,0.33671 0.95238,0 1.42857,0 0.64337,0 3.85095,0.21738 4.28571,0 5.94538,-2.97269 -1.52719,0.0986 1.42858,-2.85715 0.33671,-0.33671 1.09185,0.33672 1.42857,0 0.33671,-0.33671 -0.33672,-1.09185 0,-1.42857 0.33671,-0.33671 1.09185,0.33672 1.42857,0 0.33672,-0.33671 -0.33672,-1.09185 0,-1.42857 0.33672,-0.33672 1.09185,0.33672 1.42857,0 0.33672,-0.33672 -0.33672,-1.09185 0,-1.42857 0.33672,-0.33672 1.09185,0.33672 1.42857,0 0.33672,-0.33672 -0.33672,-1.09185 0,-1.42857 0.0575,-0.0575 5.18966,0 5.71429,0 0.47619,0 0.95238,0 1.42857,0 0.47619,0 1.00265,-0.21296 1.42857,0 0.60234,0.30117 0.82623,1.1274 1.42857,1.42857 0.42592,0.21296 1.09185,-0.33672 1.42857,0 0.33672,0.33672 -0.21296,1.00265 0,1.42857 2.97269,5.94537 -0.0986,-1.52719 2.85715,1.42857 0.33671,0.33672 -0.21296,1.00266 0,1.42857 0.30116,0.60234 1.1274,0.82624 1.42857,1.42858 0.21296,0.42591 -0.21296,1.00265 0,1.42857 0.30117,0.60234 1.1274,0.82623 1.42857,1.42857 0.21296,0.42592 -0.33672,1.09185 0,1.42857 0.33672,0.33672 1.09185,-0.33672 1.42857,0 0.71429,0.71429 -0.71429,3.57143 0,4.28571 0.33672,0.33672 1.09185,-0.33671 1.42857,0 0.67344,0.67344 -0.42592,2.00531 0,2.85715 0.30117,0.60234 1.1274,0.82623 1.42857,1.42857 0.43373,0.86746 -0.43373,7.70397 0,8.57143 0.30117,0.60234 1.1274,0.82623 1.42857,1.42857 0.28321,0.56642 -0.29205,3.99366 0,4.28571 0.33672,0.33672 1.09186,-0.33671 1.42858,0 0.33671,0.33672 -0.33672,1.09186 0,1.42857 0.33671,0.33672 0.95238,0 1.42857,0 0.47619,0 1.09185,0.33672 1.42857,0 0.33672,-0.33671 -0.33672,-1.09185 0,-1.42857 0.67343,-0.67343 2.18371,0.67344 2.85714,0 0.33672,-0.33671 -0.21296,-1.00265 0,-1.42857 1.76529,-3.53058 1.42857,0.49311 1.42857,-2.85714"
       id="path3027"
       inkscape:connector-curvature="0" />
    <path
       style="fill:none;stroke:#000000;stroke-width:1px;stroke-linecap:butt;stroke-linejoin:miter;stroke-opacity:1"
       d="m 644.28571,233.79075 c -0.47619,1.90477 0.47619,6.19048 -1.42857,5.71429 -1.90476,-0.47619 1.42857,-7.67767 1.42857,-5.71429 0,2.89656 -1.42857,5.67488 -1.42857,8.57143 0,0.47619 0,0.95238 0,1.42857 0,0.47619 -0.33671,1.09186 0,1.42858 0.33672,0.33671 1.09186,-0.33672 1.42857,0 0.33672,0.33671 -0.33671,1.09185 0,1.42857 0.14286,0.14285 4.14286,0.14285 4.28572,0 0.33672,-0.33672 -0.33672,-1.09186 0,-1.42857 0.33672,-0.33672 1.00265,0.21295 1.42857,0 0.60234,-0.30117 0.82623,-1.12741 1.42857,-1.42858 0.42592,-0.21295 1.09185,0.33672 1.42857,0 0.33672,-0.33671 -0.33672,-1.09185 0,-1.42857 0.33672,-0.33671 1.09186,0.33672 1.42857,0 0.0575,-0.0575 0,-5.18966 0,-5.71428 0,-0.47619 0.33672,-1.09186 0,-1.42857 -0.33671,-0.33672 -1.00265,0.21295 -1.42857,0 -0.60234,-0.30117 -0.82623,-1.12741 -1.42857,-1.42858 -0.42592,-0.21295 -0.95238,0 -1.42857,0 -1.90476,0 -4.73429,-1.63332 -5.71429,0 -1.24925,2.08209 1.0294,4.74779 1.42858,7.14286 0.0783,0.46971 -0.33672,1.09186 0,1.42857 0.33671,0.33672 0.95238,0 1.42857,0 0.47619,0 0.95238,0 1.42857,0 0.47619,0 0.95238,0 1.42857,0 0.47619,0 1.09185,0.33672 1.42857,0 0.33672,-0.33671 0,-0.95238 0,-1.42857 0,-0.47619 0,-0.95238 0,-1.42857 0,-0.34647 0.0459,-4.23977 0,-4.28571 -0.33672,-0.33672 -1.09185,-0.33672 -1.42857,0 -0.33672,0.33671 0.46197,1.54406 0,1.42857 -2.066,-0.5165 -4.20844,-4.36299 -5.71429,-2.85715 -1.71693,1.71693 0.5268,4.88842 1.42858,7.14286 0.17685,0.44213 0.95238,0 1.42857,0 0.47619,0 1.60542,0.44213 1.42857,0 -3.82248,-9.55618 -8.04305,-9.00586 1.42857,-1.42857 0.37184,0.29747 0.95238,0 1.42857,0 0.47619,0 1.09185,0.33672 1.42857,0 0.33672,-0.33672 0,-0.95238 0,-1.42857 0,-0.47619 0.33672,-1.09186 0,-1.42857 -0.67343,-0.67344 -1.97288,0.3537 -2.85714,0 -1.97727,-0.79091 -3.63541,-3.31912 -5.71429,-2.85715 -2.97649,0.66145 -4.60584,4.02295 -7.14285,5.71429 -0.39622,0.26414 -1.09186,-0.33672 -1.42857,0 -0.33672,0.33672 0.33671,1.09185 0,1.42857 -0.0648,0.0648 -6.46929,0 -7.14286,0 -3.35026,0 0.67343,-0.33672 -2.85714,1.42857 -0.42592,0.21296 -0.95239,0 -1.42858,0 -1.4585,0 -9.30596,-0.23134 -10,0 -0.63887,0.21296 -0.78969,1.21562 -1.42857,1.42857 -0.90351,0.30117 -1.90476,0 -2.85714,0 -2.38095,0 -4.78029,-0.29532 -7.14286,0 -1.94822,0.24353 -3.78903,1.04352 -5.71428,1.42858 -0.93389,0.18677 -1.90477,0 -2.85715,0 -3.33333,0 -6.66666,0 -10,0 -0.47619,0 -0.95238,0 -1.42857,0 -0.47619,0 -1.00265,-0.21296 -1.42857,0 -0.60234,0.30117 -0.82623,1.1274 -1.42857,1.42857 -0.43434,0.21717 -4.72783,0 -5.71429,0 -20.47619,0 -40.95238,0 -61.42857,0 -9.52381,0 -19.04762,0 -28.57143,0 -1.90476,0 -3.80952,0 -5.71428,0 -0.47619,0 -0.95238,0 -1.42857,0 -0.47619,0 -1.42857,0.47619 -1.42857,0 0,-0.47619 0.95238,0 1.42857,0 2.102,0 1.09185,-0.33672 2.85714,1.42857"
       id="path3029"
       inkscape:connector-curvature="0" />
    <path
       style="fill:none;stroke:#000000;stroke-width:1px;stroke-linecap:butt;stroke-linejoin:miter;stroke-opacity:1"
       d="m 604.28571,248.07647 c -1.90476,0.47619 -5.23809,3.33333 -5.71428,1.42857 -0.47619,-1.90476 7.10261,-2.81689 5.71428,-1.42857 -1.81328,1.81328 -4.84922,1.71032 -7.14285,2.85714 -0.60234,0.30117 -0.95238,0.95238 -1.42857,1.42857 -0.4762,0.47619 -1.12741,0.82624 -1.42858,1.42857 -0.21295,0.42592 0.33672,1.09186 0,1.42858 -0.33671,0.33671 -1.09185,-0.33672 -1.42857,0 -0.33671,0.33671 0,0.95238 0,1.42857 0,0.47619 0,0.95238 0,1.42857 0,0.47619 0,0.95238 0,1.42857 0,0.47619 -0.33671,1.09185 0,1.42857 0.33672,0.33672 0.95238,0 1.42857,0 0.47619,0 0.95238,0 1.42858,0 0.74702,0 5.33865,0.18782 5.71428,0 0.60234,-0.30117 0.82623,-1.1274 1.42857,-1.42857 0.85184,-0.42592 2.18371,0.67344 2.85715,0 0.33671,-0.33672 -0.33672,-1.09185 0,-1.42857 0.33671,-0.33672 1.00265,0.21296 1.42857,0 0.60234,-0.30117 0.82623,-1.1274 1.42857,-1.42857 0.42592,-0.21296 1.09185,0.33671 1.42857,0 0.33672,-0.33672 -0.33672,-1.09186 0,-1.42857 0.33672,-0.33672 1.09185,0.33671 1.42857,0 0.12749,-0.12749 0.096,-4.22809 0,-4.28572 -2.19892,-1.31935 -4.62829,-3.36005 -7.14286,-2.85714 -7.8263,1.56526 -7.14285,4.22953 -7.14285,8.57143 0,0.47619 0,0.95238 0,1.42857 0,0.47619 -0.33672,1.09185 0,1.42857 0.33671,0.33672 0.95238,0 1.42857,0 0.47619,0 0.95238,0 1.42857,0 0.47619,0 0.95238,0 1.42857,0 0.47619,0 1.09186,0.33672 1.42857,0 0.33672,-0.33672 -0.21296,-1.00265 0,-1.42857 0.21878,-0.43756 11.87666,-10 1.42857,-10 -3.0491,0 -3.55824,4.98681 -5.71428,7.14286 -0.33672,0.33671 -1.00266,-0.21296 -1.42857,0 -2.63002,1.31501 -0.22712,2.9707 -2.85715,4.28571 -0.42591,0.21296 -1.00265,-0.21296 -1.42857,0 -0.60234,0.30117 -0.86824,1.05502 -1.42857,1.42857 -0.88596,0.59064 -1.97118,0.83793 -2.85714,1.42857 -1.12067,0.74711 -1.73648,2.11004 -2.85714,2.85715 -7.21687,4.81124 -0.0331,0.011 -4.28572,1.42857 -5.17899,1.72633 -1.01671,0.6778 -4.28571,2.85714 -0.26611,0.1774 -5.62275,2.7656 -5.71429,2.85714 -0.75292,0.75293 -0.67565,2.10422 -1.42857,2.85715 -4.28472,4.28472 -1.42956,-1.42758 -5.71429,2.85714 -1.21405,1.21405 -1.4836,3.25556 -2.85714,4.28571 -0.7619,0.57143 -1.9332,-0.23098 -2.85714,0 -0.62524,0.15631 -8.00913,3.86399 -8.57143,4.28572 -1.0775,0.80812 -1.77965,2.04902 -2.85714,2.85714 -1.70367,1.27775 -3.94236,1.67586 -5.71429,2.85714 -0.56033,0.37356 -0.95238,0.95238 -1.42857,1.42857 -1.42857,0.95239 -2.795,2.00531 -4.28571,2.85715 -1.84901,1.05657 -3.88818,1.76148 -5.71429,2.85714 -0.57747,0.34648 -0.95238,0.95238 -1.42857,1.42857 -0.95238,0.95238 -1.77965,2.04902 -2.85714,2.85714 -1.70368,1.27776 -3.86529,1.80058 -5.71429,2.85715 -2.4108,1.3776 -4.65935,3.04396 -7.14286,4.28571 -2.29363,1.14682 -4.78583,1.84699 -7.14285,2.85714 -0.9787,0.41945 -2.00531,0.7897 -2.85715,1.42858 -1.07749,0.80812 -1.77964,2.04902 -2.85714,2.85714 -1.70367,1.27775 -4.20844,1.3513 -5.71429,2.85714 -1.21405,1.21405 -1.64309,3.07166 -2.85714,4.28572 -0.98452,0.98452 -7.00016,3.2382 -8.57143,4.28571 -1.90077,1.26718 -2.94636,4.37494 -4.28571,5.71429 -1.4248,1.42479 -7.14663,2.86091 -8.57143,4.28571 -1.21405,1.21405 -1.46002,3.28777 -2.85714,4.28571 -2.08671,1.49051 -4.80835,1.79601 -7.14286,2.85715 -4.1178,1.87172 -9.81876,5.35607 -14.28571,7.14285 -1.39815,0.55926 -2.93885,0.75514 -4.28572,1.42858 -0.60234,0.30117 -0.86824,1.05501 -1.42857,1.42857 -0.88596,0.59064 -1.97118,0.83793 -2.85714,1.42857 -0.56033,0.37355 -0.7897,1.21561 -1.42857,1.42857 -0.90351,0.30117 -1.95364,-0.30117 -2.85715,0 -0.63887,0.21296 -0.82623,1.1274 -1.42857,1.42857 -0.42592,0.21296 -0.95238,0 -1.42857,0 -0.95238,0 -1.95364,-0.30117 -2.85714,0 -0.63888,0.21296 -0.82624,1.1274 -1.42857,1.42857 -0.7612,0.3806 -2.09595,-0.38059 -2.85715,0 -0.60234,0.30117 -0.82623,1.12741 -1.42857,1.42857 -0.29304,0.14652 -4.08425,0.20147 -4.28571,0 -1.96079,-1.96078 2.52101,-1.42857 2.85714,-1.42857"
       id="path3031"
       inkscape:connector-curvature="0" />
    <path
       style="fill:none;stroke:#000000;stroke-width:1px;stroke-linecap:butt;stroke-linejoin:miter;stroke-opacity:1"
       d="m 612.85714,298.07647 c -1.90476,0.95238 -4.7619,4.7619 -5.71428,2.85714 -0.95238,-1.90476 7.84387,-2.85714 5.71428,-2.85714 -16.8193,0 -5.42809,0.85618 -7.14285,4.28571 -0.30117,0.60234 -1.12741,0.82624 -1.42858,1.42857 -0.21295,0.42592 0,0.95239 0,1.42858 0,0.47619 0,0.95238 0,1.42857 0,0.47619 0,0.95238 0,1.42857 0,0.47619 -0.33671,1.09185 0,1.42857 0.47457,0.47457 2.38258,-0.47457 2.85715,0 0.33671,0.33672 -0.33672,1.09185 0,1.42857 0.33671,0.33672 0.95238,0 1.42857,0 0.99363,0 6.62624,0.25831 7.14286,0 0.60233,-0.30117 0.82623,-1.1274 1.42857,-1.42857 0.42591,-0.21296 1.09185,0.33672 1.42857,0 0.33672,-0.33672 -0.33672,-1.09185 0,-1.42857 0.33672,-0.33672 1.00265,0.21296 1.42857,0 0.60234,-0.30117 0.82623,-1.1274 1.42857,-1.42857 0.42592,-0.21296 1.09186,0.33671 1.42857,0 0.67344,-0.67344 -0.67343,-2.18371 0,-2.85715 0.33672,-0.33671 1.09186,0.33672 1.42857,0 0.33672,-0.33671 0,-0.95238 0,-1.42857 0,-0.34646 0.046,-4.23977 0,-4.28571 -0.0459,-0.0459 -3.93924,0 -4.28571,0 -2.38095,0 -5.2054,-1.3839 -7.14286,0 -2.08671,1.49051 -2.35423,4.62829 -2.85714,7.14286 -0.0934,0.46694 0.95238,0 1.42857,0 0.47619,0 0.95238,0 1.42857,0 0.47619,0 1.42857,0.47619 1.42857,0 0,-2.42811 -3.37105,-5.686 -1.42857,-7.14286 2.05149,-1.53862 4.62829,2.35423 7.14286,2.85714 0.46694,0.0934 -0.33672,-1.09185 0,-1.42857 0.33672,-0.33672 1.09185,0.33672 1.42857,0 0.33672,-0.33672 0.33672,-1.09185 0,-1.42857 -0.33672,-0.33672 -0.95238,0 -1.42857,0 -7.71226,0 -8.57143,-2.33472 -8.57143,7.14286 0,0.47619 0.95238,0 1.42857,0 0.47619,0 0.95238,0 1.42857,0 0.47619,0 1.52196,0.46694 1.42858,0 -0.50292,-2.51457 -4.99083,-5.72041 -2.85715,-7.14286 4.43096,-2.95397 6.41272,6.44442 8.57143,4.28571 0.33672,-0.33671 0.33672,-1.09185 0,-1.42857 -0.33672,-0.33672 -1.09185,0.33672 -1.42857,0 -0.33672,-0.33672 0.44213,-1.25172 0,-1.42857 -4.73879,-1.89551 -9.36152,-1.42857 -14.28571,-1.42857 -4.28572,0 -8.57143,0 -12.85715,0 -1.90476,0 -3.82867,0.26937 -5.71428,0 -1.49072,-0.21296 -2.78431,-1.31308 -4.28572,-1.42857 -4.74788,-0.36522 -9.52381,0 -14.28571,0 -7.14286,0 -14.28572,0 -21.42857,0 -9.04762,0 -18.09524,0 -27.14286,0 -3.80952,0 -7.63795,-0.37906 -11.42857,0 -4.29069,0.42907 -8.5525,1.17535 -12.85714,1.42857 -9.73648,0.57273 -20.35827,-0.87652 -30,0 -0.67067,0.061 -0.7897,1.21561 -1.42858,1.42857 -0.65394,0.21798 -6.34549,0 -7.14285,0 -5.2381,0 -10.47619,0 -15.71429,0 -0.52462,0 -5.6568,-0.0575 -5.71428,0 -0.33672,0.33672 0,0.95238 0,1.42857 0,0.47619 -0.33672,1.09186 0,1.42857 0.0459,0.046 3.93924,0 4.28571,0"
       id="path3033"
       inkscape:connector-curvature="0" />
    <path
       style="fill:none;stroke:#000000;stroke-width:1px;stroke-linecap:butt;stroke-linejoin:miter;stroke-opacity:1"
       d="m 647.14286,223.79075 c 1.90476,0.47619 6.19047,-0.47619 5.71428,1.42858 -0.47619,1.90476 -7.67767,-1.42858 -5.71428,-1.42858 2.4281,0 4.74779,1.0294 7.14285,1.42858 0.46972,0.0783 1.09186,0.33671 1.42858,0 0.33671,-0.33672 0,-0.95239 0,-1.42858 0,-0.34646 0.0459,-4.23977 0,-4.28571 -0.33672,-0.33672 -1.00266,-0.21296 -1.42858,0 -2.4835,1.24175 -7.14285,1.50907 -7.14285,4.28571 0,2.38096 4.80814,0.46695 7.14285,0 0.46695,-0.0934 -0.21295,-1.00265 0,-1.42857 0.30117,-0.60234 1.12741,-0.82623 1.42858,-1.42857 0.21738,-0.43476 0,-3.64234 0,-4.28571 0,-0.47619 0.33671,-1.09186 0,-1.42857 -0.33672,-0.33672 -0.95239,0 -1.42858,0 -0.34646,0 -4.23977,-0.046 -4.28571,0 -0.33672,0.33671 0.33672,1.09185 0,1.42857 -0.67344,0.67343 -2.67037,-0.93389 -2.85714,0 -0.46695,2.33471 -2.33472,6.67591 0,7.14285 2.98989,0.59798 4.60584,-4.02294 7.14285,-5.71428 0.39622,-0.26414 1.00266,0.21296 1.42858,0 0.60233,-0.30117 0.82623,-1.1274 1.42857,-1.42857 0.42591,-0.21296 1.42857,-0.47619 1.42857,0 0,0.15808 -9.88018,-0.19971 -10,0 -1.24925,2.08208 0.87493,6.37502 -1.42857,7.14285 -2.63416,0.87806 -4.59072,-3.19194 -7.14286,-4.28571 -1.78994,-0.76712 -8.18091,1.35047 -8.57143,1.42857 -0.46694,0.0934 -0.97682,-0.15058 -1.42857,0 -2.02031,0.67344 -3.61367,2.50704 -5.71429,2.85714 -1.87884,0.31315 -3.84651,-0.37355 -5.71428,0 -0.66036,0.13208 -0.86824,1.05502 -1.42857,1.42858 -0.88597,0.59064 -1.81771,1.19758 -2.85715,1.42857 -3.28699,0.73044 -6.75147,0.54261 -10,1.42857 -2.05455,0.56033 -3.67887,2.23086 -5.71428,2.85714 -4.19612,1.29111 -8.62158,1.70199 -12.85714,2.85714 -1.02728,0.28017 -1.83332,1.13605 -2.85715,1.42858 -2.33468,0.66705 -4.92402,0.44242 -7.14285,1.42857 -2.17575,0.96699 -3.46908,3.49328 -5.71429,4.28571 -5.99098,2.11447 -12.4627,2.54036 -18.57143,4.28572 -0.64752,0.185 -0.95238,0.95238 -1.42857,1.42857 -0.95238,0 -1.91433,-0.13469 -2.85714,0 -15.7651,2.25215 -1.64787,0.0731 -10,2.85714 -0.45176,0.15058 -0.97682,-0.15058 -1.42857,0 -1.01016,0.33672 -1.82415,1.17032 -2.85715,1.42857 -2.81007,0.70252 -5.78632,0.63283 -8.57143,1.42857 -0.64752,0.18501 -0.78969,1.21562 -1.42857,1.42857 -0.90351,0.30117 -1.91433,-0.13468 -2.85714,0 -2.38095,0.47619 -4.76191,0.95239 -7.14286,1.42858 -0.95238,0.47619 -1.82414,1.17032 -2.85714,1.42857 -0.92395,0.23098 -1.9332,-0.23099 -2.85714,0 -1.03301,0.25825 -1.82414,1.17032 -2.85715,1.42857 -0.92394,0.23099 -1.93319,-0.23099 -2.85714,0 -1.033,0.25825 -1.90476,0.95238 -2.85714,1.42857 -4.28572,0.47619 -8.62879,0.5829 -12.85714,1.42857 -1.76529,1.76529 -0.75514,1.42857 -2.85715,1.42857 -3.23382,0 -4.25594,1.89484 -7.14285,2.85715 -0.45176,0.15058 -0.97682,-0.15059 -1.42858,0 -1.01015,0.33671 -1.84699,1.09185 -2.85714,1.42857 -0.45175,0.15058 -1.00265,-0.21296 -1.42857,0 -0.60234,0.30117 -0.82623,1.1274 -1.42857,1.42857 -0.42592,0.21296 -0.95238,0 -1.42857,0 -0.47619,0.47619 -0.82624,1.1274 -1.42857,1.42857 -0.43477,0.21738 -3.64235,0 -4.28572,0 -0.47619,0 -1.42857,0.47619 -1.42857,0 0,-0.47619 1.00265,-0.21296 1.42857,0 3.53058,1.76529 -0.49311,1.42857 2.85714,1.42857"
       id="path3035"
       inkscape:connector-curvature="0" />
  </g>
</svg>
